<svg xmlns="http://www.w3.org/2000/svg" xmlns:xlink="http://www.w3.org/1999/xlink" width="48" height="48"><defs><linearGradient id="b" x1="-.786%" x2="65.061%" y1="14.46%" y2="60.066%"><stop offset="0%" stop-color="#009EE2"/><stop offset="15.02%" stop-color="#049FE3"/><stop offset="30.21%" stop-color="#10A4E4"/><stop offset="45.49%" stop-color="#24ABE7"/><stop offset="60.83%" stop-color="#41B6EA"/><stop offset="76.22%" stop-color="#66C3EF"/><stop offset="91.44%" stop-color="#92D4F4"/><stop offset="100%" stop-color="#AEDEF8"/></linearGradient><linearGradient id="g" x1="50%" x2="50%" y1="0%" y2="100%"><stop offset="0%" stop-color="#FFF" stop-opacity=".5"/><stop offset="100%" stop-opacity=".5"/></linearGradient><path id="c" d="M0 1.211C0 .558.53.028 1.187.028h21.626c.656 0 1.187.53 1.187 1.183v12.735c0 .653-.53 1.183-1.187 1.183H1.187A1.184 1.184 0 0 1 0 13.946V1.21z"/><path id="e" d="M0 1.211C0 .558.53.028 1.187.028h21.626c.656 0 1.187.53 1.187 1.183v12.735c0 .653-.53 1.183-1.187 1.183H1.187A1.184 1.184 0 0 1 0 13.946V1.21z"/><circle id="a" cx="24" cy="24" r="24"/></defs><g fill="none" fill-rule="evenodd"><use fill="#F7F7F7" xlink:href="#a"/><g transform="translate(12 16.5)"><path fill="url(#b)" fill-rule="nonzero" d="M0 1.211C0 .558.53.028 1.187.028h21.626c.656 0 1.187.53 1.187 1.183v12.735c0 .653-.53 1.183-1.187 1.183H1.187A1.184 1.184 0 0 1 0 13.946V1.21z"/><mask id="d" fill="#fff"><use xlink:href="#c"/></mask><g fill="#00A3DA" fill-rule="nonzero" mask="url(#d)" opacity=".104"><path d="M-4.123 19.038l-.077-.02c.798-4.71 1.617-9.412 2.41-13.959.59-3.39 1.202-6.896 1.786-10.312l.078.02A3221.43 3221.43 0 0 1-1.714 5.081c-.79 4.545-1.61 9.246-2.409 13.957m.685-.05l-.078-.018c.53-3.454 1.15-6.751 1.751-9.94C-.848 4.16.019-.44.503-5.212l.078.012C.097-.422-.77 4.18-1.688 9.052c-.6 3.188-1.221 6.484-1.75 9.936m.684-.05l-.077-.016c.494-3.62 1.16-6.923 1.806-10.118C-.068 4.062.835-.417 1.009-5.173l.079.005C.914-.403.009 4.081-.949 8.827c-.644 3.193-1.31 6.495-1.804 10.11"/><path d="M-2.068 18.889l-.079-.015c.455-3.803 1.168-7.133 1.858-10.353C.695 3.927 1.624-.412 1.515-5.133l.079-.003c.11 4.735-.82 9.08-1.806 13.682-.69 3.218-1.402 6.545-1.856 10.342"/><path d="M-1.384 18.839l-.078-.013c.407-3.98 1.163-7.335 1.895-10.58C1.48 3.606 2.384-.403 2.021-5.093l.079-.009C2.465-.395 1.515 3.816.51 8.274c-.732 3.241-1.487 6.592-1.893 10.565"/><path d="M-.699 18.789l-.078-.01c.35-4.148 1.146-7.522 1.915-10.785C2.2 3.495 3.117-.39 2.528-5.054l.078-.015c.592 4.686-.327 8.58-1.391 13.09-.77 3.26-1.564 6.629-1.914 10.767"/><path d="M-.014 18.739l-.079-.01c.285-4.302 1.153-7.841 1.92-10.964C2.896 3.401 3.823-.368 3.034-5.016l.077-.02c.794 4.672-.134 8.453-1.208 12.83C1.137 10.912.27 14.447-.014 18.738"/><path d="M.671 18.689l-.08-.007c.212-4.443 1.113-7.991 1.908-11.12C3.575 3.321 4.505-.341 3.54-4.979l.077-.022c.97 4.664.037 8.338-1.043 12.592C1.781 10.716.882 14.257.671 18.689"/><path d="M1.356 18.639l-.08-.004c.13-4.573 1.059-8.123 1.878-11.255 1.079-4.124 2.01-7.686.893-12.32l.076-.027C5.247-.305 4.312 3.27 3.229 7.41c-.817 3.126-1.743 6.669-1.873 11.229"/><path d="M2.041 18.588l-.08-.001c.042-4.689.993-8.236 1.833-11.366 1.077-4.018 2.008-7.488.76-12.123l.075-.03c1.257 4.665.322 8.15-.76 12.184-.838 3.123-1.787 6.662-1.828 11.336"/><path d="M2.646 18.539c-.053-4.792.917-8.332 1.773-11.456 1.074-3.92 2.002-7.307.64-11.947l.075-.034c1.37 4.673.439 8.074-.64 12.012-.854 3.117-1.822 6.649-1.769 11.424l-.079.001z"/><path d="M3.331 18.492c-.154-4.883.83-8.413 1.699-11.528 1.068-3.831 1.99-7.14.536-11.791l.074-.036c1.465 4.685.538 8.01-.535 11.859-.866 3.106-1.848 6.628-1.695 11.492l-.08.004z"/><path d="M4.016 18.444c-.26-4.96.734-8.478 1.612-11.581 1.06-3.75 1.975-6.99.445-11.654l.073-.036c1.542 4.698.622 7.953-.443 11.722-.875 3.094-1.867 6.602-1.608 11.543l-.08.006z"/><path d="M4.7 18.396c-.37-5.026.63-8.528 1.513-11.618 1.05-3.677 1.957-6.852.366-11.532l.073-.037c1.603 4.714.692 7.906-.364 11.601-.88 3.08-1.877 6.572-1.509 11.577l-.079.01z"/><path d="M5.386 18.349c-.485-5.082.517-8.567 1.402-11.642 1.038-3.61 1.934-6.727.297-11.424l.073-.039c1.65 4.733.748 7.867-.296 11.496-.881 3.065-1.88 6.539-1.398 11.597l-.079.012z"/><path d="M6.07 18.301c-.602-5.125.399-8.592 1.282-11.65 1.024-3.55 1.909-6.616.24-11.332l.072-.039c1.682 4.751.792 7.834-.238 11.403-.88 3.048-1.876 6.503-1.277 11.604l-.079.014z"/><path d="M6.755 18.253c-.722-5.158.273-8.606 1.151-11.648 1.009-3.496 1.88-6.516.191-11.25l.073-.039c1.701 4.77.825 7.806-.19 11.322-.874 3.03-1.865 6.466-1.147 11.599l-.078.016z"/><path d="M7.44 18.206c-.844-5.182.142-8.61 1.012-11.636.992-3.449 1.848-6.427.152-11.178l.072-.04c1.71 4.787.807 7.927-.149 11.25-.867 3.014-1.849 6.43-1.01 11.585l-.077.019z"/><path d="M8.125 18.159c-.966-5.196-.035-8.46.866-11.616.932-3.264 1.812-6.347.119-11.115l.072-.04c1.706 4.804.82 7.904-.116 11.187-.897 3.143-1.825 6.393-.864 11.561l-.077.022z"/><path d="M8.81 18.111c-1.09-5.201-.173-8.448.714-11.587.911-3.229 1.772-6.278.092-11.06l.072-.04c1.693 4.818.827 7.885-.09 11.132-.882 3.126-1.795 6.358-.711 11.53l-.077.025z"/><path d="M9.495 18.063c-1.212-5.198-.314-8.429.556-11.553.89-3.197 1.73-6.217.07-11.01l.074-.039c1.67 4.828.825 7.865-.07 11.08-.865 3.11-1.76 6.327-.554 11.495l-.076.027z"/><path d="M10.18 18.015c-1.334-5.187-.456-8.404.394-11.515.865-3.17 1.683-6.163.054-10.965l.073-.037c1.64 4.835.818 7.846-.052 11.033-.846 3.096-1.72 6.298-.393 11.455l-.076.03z"/><path d="M10.866 17.968c-1.455-5.17-.6-8.376.227-11.475.84-3.145 1.632-6.117.04-10.922l.074-.037c1.603 4.839.805 7.827-.039 10.99-.823 3.084-1.673 6.272-.228 11.412l-.075.032z"/><path d="M11.55 17.92c-1.571-5.147-.742-8.343.06-11.432.812-3.125 1.578-6.077.03-10.881l.073-.036c1.559 4.836.788 7.804-.027 10.946-.798 3.074-1.624 6.253-.062 11.369l-.074.034z"/><path d="M12.236 17.872c-1.686-5.119-.885-8.307-.11-11.39.747-2.97 1.519-6.042.02-10.84l.074-.035c1.508 4.83.732 7.917-.018 10.903-.771 3.067-1.568 6.24.107 11.325l-.074.037z"/><path d="M12.92 17.824c-1.795-5.085-1.024-8.27-.279-11.35.716-2.956 1.455-6.012.01-10.796l.075-.034c1.454 4.815.71 7.887-.009 10.857-.775 3.205-1.508 6.232.276 11.285l-.073.038z"/><path d="M13.606 17.777c-1.901-5.048-1.196-8.092-.449-11.315.682-2.942 1.387-5.984 0-10.748l.075-.033c1.396 4.793.687 7.851.001 10.808-.742 3.205-1.444 6.232.444 11.246l-.071.042z"/><path d="M14.291 17.729c-2.001-5.007-1.329-8.056-.617-11.284.647-2.93 1.315-5.96-.01-10.696l.074-.031c1.334 4.764.662 7.809.013 10.753-.708 3.21-1.377 6.24.61 11.215l-.07.043z"/><path d="M14.976 17.681c-2.094-4.964-1.457-8.022-.782-11.259.608-2.919 1.237-5.937-.024-10.637l.075-.03c1.269 4.727.637 7.76.026 10.692-.671 3.218-1.305 6.258.775 11.189l-.07.045z"/><path d="M15.661 17.633c-2.18-4.919-1.58-7.99-.945-11.242.568-2.908 1.155-5.915-.04-10.57l.075-.03c1.203 4.681.613 7.702.042 10.623-.631 3.233-1.228 6.287.937 11.172l-.07.047z"/><path d="M16.346 17.585c-2.257-4.872-1.697-7.963-1.104-11.235.526-2.897 1.069-5.893-.06-10.494l.075-.028c1.136 4.626.59 7.634.063 10.543-.59 3.253-1.147 6.326 1.095 11.165l-.069.049z"/><path d="M17.031 17.537c-2.326-4.825-1.831-7.798-1.258-11.24.458-2.75.977-5.869-.086-10.405l.077-.028c1.067 4.56.546 7.69.087 10.452-.57 3.423-1.062 6.378 1.248 11.17l-.068.05z"/><path d="M17.716 17.489c-2.384-4.779-1.932-7.782-1.407-11.259.88-5.84.351-8.211-.116-10.303l.077-.026c1 4.484.531 7.599.117 10.347-.522 3.457-.972 6.443 1.397 11.19l-.068.05z"/><path d="M18.401 17.439c-2.431-4.732-2.023-7.77-1.551-11.29.366-2.723.78-5.81-.15-10.186l.076-.025c.935 4.397.52 7.494.152 10.227-.47 3.5-.875 6.522 1.54 11.223l-.067.052z"/><path d="M19.086 17.391c-2.466-4.688-2.106-7.771-1.688-11.34.316-2.706.674-5.773-.193-10.053l.077-.023c.871 4.298.511 7.375.194 10.09-.415 3.55-.774 6.615 1.677 11.273l-.067.053z"/><path d="M19.771 17.343c-2.488-4.648-2.178-7.782-1.82-11.41.266-2.685.566-5.728-.24-9.9l.077-.022c.81 4.188.508 7.24.242 9.934-.357 3.609-.665 6.726 1.807 11.344l-.066.054z"/><path d="M20.456 17.294c-2.494-4.61-2.24-7.803-1.944-11.5.212-2.66.453-5.674-.295-9.724l.078-.022c.75 4.066.509 7.088.296 9.755-.294 3.679-.548 6.856 1.93 11.437l-.065.054z"/><path d="M21.141 17.245c-2.485-4.577-2.289-7.838-2.062-11.613.158-2.63.337-5.61-.356-9.527l.078-.02c.695 3.93.516 6.918.357 9.554-.226 3.758-.42 7.003 2.048 11.552l-.065.054z"/><path d="M21.826 17.196c-2.457-4.55-2.325-7.887-2.173-11.752.102-2.592.218-5.531-.424-9.303l.078-.02c.644 3.784.528 6.73.425 9.328-.152 3.847-.283 7.17 2.16 11.693l-.067.054z"/><path d="M22.51 17.147c-2.41-4.53-2.348-7.954-2.277-11.918.046-2.55.098-5.439-.498-9.052l.078-.02c.597 3.625.545 6.52.5 9.074-.071 3.948-.132 7.358 2.263 11.863l-.066.053z"/><path d="M23.194 17.098c-2.34-4.518-2.356-8.04-2.375-12.116-.011-2.497-.024-5.327-.577-8.77l.077-.018c.555 3.451.568 6.286.58 8.787.018 4.062.034 7.57 2.362 12.064l-.067.053z"/><path d="M23.879 17.049c-2.248-4.516-2.35-8.146-2.47-12.35-.068-2.433-.145-5.193-.661-8.45l.077-.019c.518 3.265.595 6.028.664 8.467.118 4.189.22 7.807 2.457 12.3l-.067.051z"/><path d="M24.563 16.999c-2.13-4.525-2.33-8.276-2.56-12.62-.13-2.475-.266-5.035-.75-8.094l.079-.019c.484 3.066.626 5.744.75 8.107.23 4.331.428 8.071 2.55 12.576l-.07.05z"/><path d="M25.247 16.948c-1.984-4.549-2.292-8.435-2.648-12.934-.189-2.382-.384-4.846-.84-7.693l.079-.019c.456 2.852.65 5.318.84 7.703.355 4.488.662 8.365 2.639 12.897l-.07.046z"/><path d="M25.931 16.897c-1.809-4.59-2.24-8.628-2.74-13.303-.243-2.27-.494-4.618-.925-7.236l.078-.02c.431 2.622.682 4.971.925 7.243.5 4.666.93 8.697 2.733 13.273l-.07.043z"/><path d="M26.615 16.846c-1.6-4.661-2.203-9.076-2.842-13.75-.291-2.131-.592-4.335-1-6.702l.077-.02c.409 2.369.71 4.573 1.001 6.706.638 4.668 1.24 9.078 2.837 13.728l-.073.038zm.684-.052c-1.362-4.79-2.146-9.442-2.976-14.367-.326-1.933-.663-3.932-1.045-5.996l.078-.022c.381 2.065.718 4.065 1.044 5.998.83 4.922 1.614 9.571 2.974 14.355l-.075.032zm.684-.052c-1.453-6.705-2.849-13.603-4.198-20.274l.077-.023c1.35 6.67 2.744 13.567 4.197 20.271l-.076.026z"/></g><mask id="f" fill="#fff"><use xlink:href="#e"/></mask><g fill="#FFF" fill-rule="nonzero" mask="url(#f)" opacity=".24"><path d="M4.14-2.337c-4.324 0-7.83 3.497-7.83 7.814 0 4.315 3.506 7.814 7.83 7.814 4.325 0 7.83-3.499 7.83-7.814 0-4.316-3.505-7.814-7.83-7.814zm-6.794 7.814c0-3.745 3.043-6.781 6.795-6.781 3.753 0 6.795 3.036 6.795 6.78 0 3.746-3.042 6.782-6.795 6.782-3.752 0-6.795-3.036-6.795-6.781z"/><path d="M6.462 6.155a1.628 1.628 0 0 0-.48-.504 2.55 2.55 0 0 0-.65-.317 11.757 11.757 0 0 0-.716-.211v-2.08l.083-.001c.131.025.251.058.36.1.109.043.208.085.299.126.09.041.17.076.24.105.07.03.13.043.18.04a.276.276 0 0 0 .168-.056.595.595 0 0 0 .134-.156l.282-.467a3.31 3.31 0 0 0-.69-.458 2.803 2.803 0 0 0-.93-.263h-.126v-.597a.286.286 0 0 0-.286-.285h-.624v.904a2.344 2.344 0 0 0-1.394.702 2 2 0 0 0-.417.669 1.896 1.896 0 0 0-.122.751c.014.342.082.624.205.847.123.222.28.404.472.546.191.141.405.252.64.333.204.07.41.129.617.181v2.274h-.001a1.68 1.68 0 0 1-.492-.135 4.037 4.037 0 0 1-.375-.195c-.11-.066-.207-.122-.293-.17a.448.448 0 0 0-.239-.069.395.395 0 0 0-.299.183l-.357.581c.25.227.55.414.898.56.35.146.72.238 1.114.275h.043v.596c0 .158.128.286.286.286h.625v-.917c.294-.05.56-.13.796-.247.285-.142.523-.321.713-.538.19-.216.332-.463.424-.739.093-.276.132-.569.12-.879-.013-.313-.082-.572-.208-.775zM3.494 4.768a1.282 1.282 0 0 1-.286-.19.782.782 0 0 1-.273-.582.85.85 0 0 1 .045-.315.742.742 0 0 1 .173-.275c.08-.084.184-.156.312-.216.071-.034.153-.063.242-.087v1.756a2.435 2.435 0 0 1-.213-.091zm1.769 3.164c-.15.172-.366.291-.647.36V6.303c.11.034.215.071.311.113.113.049.211.108.296.178a.751.751 0 0 1 .282.575c.013.31-.068.564-.242.763z"/></g><path d="M2.33 8.144h.293v-.309H2.24v-.56h.446a.063.063 0 0 1 .064.062.06.06 0 0 1-.02.046.06.06 0 0 1-.044.018h-.318v.308h.255c.034 0 .064.013.089.038a.12.12 0 0 1 .038.088v.31a.122.122 0 0 1-.038.088.119.119 0 0 1-.089.037H2.33a.227.227 0 0 1-.084-.018l-.095-.04c-.026-.01-.039-.03-.039-.06a.06.06 0 0 1 .018-.045.053.053 0 0 1 .042-.018c.012 0 .027.004.044.011l.083.035c.01.006.02.01.031.01zm1 0h.293v-.309H3.24v-.56h.446a.063.063 0 0 1 .064.062.058.058 0 0 1-.019.045.062.062 0 0 1-.045.019h-.318v.308h.255c.034 0 .064.013.089.038a.12.12 0 0 1 .038.088v.31a.119.119 0 0 1-.038.088.119.119 0 0 1-.089.037H3.33a.227.227 0 0 1-.084-.018l-.095-.04c-.026-.01-.039-.03-.039-.06 0-.018.006-.033.018-.045a.054.054 0 0 1 .042-.018c.012 0 .027.004.044.011l.083.035c.01.006.02.01.031.01zm6.335 0h.293v-.309h-.382v-.56h.446a.06.06 0 0 1 .044.018.06.06 0 0 1 .019.044.058.058 0 0 1-.019.045.061.061 0 0 1-.044.019h-.318v.308h.254c.034 0 .064.013.09.038a.123.123 0 0 1 .037.088v.31a.122.122 0 0 1-.037.088.122.122 0 0 1-.09.037h-.293a.218.218 0 0 1-.083-.018l-.096-.04c-.026-.01-.038-.03-.038-.06a.06.06 0 0 1 .059-.063c.013 0 .027.004.044.011l.083.035c.01.006.02.01.031.01zm-4.915.063v-.262h-.382v-.608c0-.017.007-.032.02-.045a.06.06 0 0 1 .045-.02c.017 0 .032.007.045.02a.064.064 0 0 1 .018.045v.48h.254v-.37c0-.017.006-.032.018-.045a.062.062 0 0 1 .09.001.061.061 0 0 1 .018.045v.37c.018 0 .033.005.045.018a.06.06 0 0 1 .018.044.061.061 0 0 1-.063.063v.264a.058.058 0 0 1-.019.045.06.06 0 0 1-.044.018.061.061 0 0 1-.063-.063zm3.224-.808v.236c0 .056-.017.1-.052.134.036.04.053.082.053.128v.246a.119.119 0 0 1-.038.089.122.122 0 0 1-.09.037H7.4a.061.061 0 0 1-.045-.018.061.061 0 0 1-.019-.045.06.06 0 0 1 .019-.045.061.061 0 0 1 .045-.018h.446v-.246a.066.066 0 0 0-.019-.046.061.061 0 0 0-.045-.018h-.254a.062.062 0 0 1-.045-.019.057.057 0 0 1-.019-.045c0-.017.007-.032.019-.045a.061.061 0 0 1 .045-.018h.256a.06.06 0 0 0 .044-.018.06.06 0 0 0 .02-.045v-.244h-.453a.063.063 0 0 1-.045-.018c-.012-.013-.018-.028-.018-.045s.006-.032.018-.045a.063.063 0 0 1 .045-.018h.452a.126.126 0 0 1 .127.126zm.474.75v-.754c0-.033.012-.062.036-.086a.116.116 0 0 1 .086-.036h.394c.033 0 .061.012.085.036a.118.118 0 0 1 .036.086v.754a.118.118 0 0 1-.036.086.115.115 0 0 1-.086.035H8.57a.116.116 0 0 1-.087-.035.117.117 0 0 1-.035-.086zm.512-.006v-.742h-.386v.742h.386zm1.62.005v-.753c0-.033.012-.062.036-.086a.116.116 0 0 1 .086-.036h.394c.033 0 .061.012.085.036a.118.118 0 0 1 .036.086v.754a.118.118 0 0 1-.036.086.117.117 0 0 1-.086.035h-.393a.116.116 0 0 1-.087-.035.114.114 0 0 1-.036-.086zm.511-.005v-.742h-.386v.742h.386zm1.649-.753v-.054c0-.018.006-.032.018-.045a.064.064 0 0 1 .045-.018h.574v.387c0 .02-.008.038-.023.051l-.233.198v.294a.063.063 0 0 1-.018.045.062.062 0 0 1-.045.02.063.063 0 0 1-.046-.02.058.058 0 0 1-.019-.044v-.318c0-.024.008-.042.023-.055l.234-.198v-.234h-.383c-.009.036-.03.054-.063.054a.064.064 0 0 1-.045-.018.063.063 0 0 1-.018-.045zm-7.471 0v-.054c0-.018.006-.032.018-.045a.065.065 0 0 1 .046-.018h.574v.387c0 .02-.008.038-.024.051l-.232.198v.294a.06.06 0 0 1-.019.045.06.06 0 0 1-.045.02.062.062 0 0 1-.045-.02.059.059 0 0 1-.02-.044v-.318c0-.024.008-.042.023-.055l.235-.198v-.234h-.383c-.009.036-.03.054-.063.054a.061.061 0 0 1-.045-.018.06.06 0 0 1-.019-.045zm8.553.754h.194v-.743h-.191a.062.062 0 0 1-.045-.019.062.062 0 0 1 0-.089.062.062 0 0 1 .045-.019h.318v.87h.126v-.261c0-.017.006-.032.019-.045a.06.06 0 0 1 .044-.018c.018 0 .033.006.045.018a.058.058 0 0 1 .019.045v.325a.058.058 0 0 1-.019.045.061.061 0 0 1-.045.018h-.51a.058.058 0 0 1-.045-.019.061.061 0 0 1 0-.089.061.061 0 0 1 .045-.018zm.998.005v-.754c0-.033.012-.062.037-.086a.116.116 0 0 1 .085-.036h.395c.033 0 .061.012.085.036a.118.118 0 0 1 .036.086v.754a.118.118 0 0 1-.036.086.117.117 0 0 1-.086.035h-.394a.114.114 0 0 1-.086-.035.118.118 0 0 1-.036-.086zm.513-.005v-.743h-.386v.742h.386zm.548.005v-.754c0-.033.012-.062.036-.086a.118.118 0 0 1 .086-.036h.395c.032 0 .06.012.084.036a.118.118 0 0 1 .036.086v.754a.118.118 0 0 1-.036.086.114.114 0 0 1-.086.035h-.393a.118.118 0 0 1-.087-.035.121.121 0 0 1-.035-.086zm.512-.005v-.743h-.386v.742h.386zm2.186.125h-.063a.063.063 0 0 1-.064-.063.06.06 0 0 1 .019-.045.061.061 0 0 1 .045-.018v-.417h-.446a.063.063 0 0 1-.064-.063v-.327c0-.017.007-.032.02-.044a.057.057 0 0 1 .044-.02h.509c.017 0 .032.007.044.02.013.012.02.027.02.044v.87a.062.062 0 0 1-.02.045.06.06 0 0 1-.044.018zm-.062-.67v-.198h-.384v.198h.384zm.544.544v-.308c0-.034.012-.064.037-.089a.124.124 0 0 1 .09-.037v-.372c0-.017.007-.032.019-.044a.062.062 0 0 1 .045-.019h.258c.017 0 .032.007.045.019a.06.06 0 0 1 .018.044v.372c.034 0 .064.012.089.036a.123.123 0 0 1 .038.09v.31a.119.119 0 0 1-.038.088.122.122 0 0 1-.089.037h-.384a.121.121 0 0 1-.091-.039.123.123 0 0 1-.037-.088zm.254-.742v.308h.131v-.308h-.13zm-.126.434v.31h.384v-.31h-.384zm.934-.442v-.054a.061.061 0 0 1 .063-.063h.574v.387c0 .02-.008.038-.023.051l-.233.198v.294a.06.06 0 0 1-.019.045.059.059 0 0 1-.044.02.063.063 0 0 1-.046-.02.059.059 0 0 1-.02-.044v-.318c0-.024.008-.042.023-.055l.234-.197v-.235h-.383c-.009.036-.03.054-.063.054a.061.061 0 0 1-.063-.063zm1.06.756v-.754c0-.033.012-.062.036-.086a.118.118 0 0 1 .086-.036h.395c.033 0 .06.012.085.036a.117.117 0 0 1 .035.086v.754a.117.117 0 0 1-.035.086.118.118 0 0 1-.087.035h-.393a.114.114 0 0 1-.086-.035.118.118 0 0 1-.036-.086zm.512-.005v-.743h-.385v.742h.385z" fill="#FFF" fill-rule="nonzero" opacity=".798"/><g fill-rule="nonzero"><path fill="#2D3277" d="M22.726 1.777c-.024.03-.059.046-.104.046s-.08-.015-.104-.046a.205.205 0 0 1-.037-.132c0-.057.012-.1.036-.132.025-.03.06-.046.105-.046s.08.016.104.046a.205.205 0 0 1 .037.132c0 .057-.012.1-.037.132zm.124-.345c-.05-.06-.126-.09-.227-.09-.102 0-.178.03-.228.09a.322.322 0 0 0-.075.213c0 .083.025.155.075.214.05.06.126.089.228.089.101 0 .177-.03.227-.089.05-.06.075-.13.075-.214a.322.322 0 0 0-.075-.213zm-1.355.274c-.001.05-.016.085-.044.104a.16.16 0 0 1-.092.028.091.091 0 0 1-.054-.016c-.014-.011-.022-.03-.022-.056 0-.028.012-.05.036-.063a.23.23 0 0 1 .07-.02l.035-.007c.018-.003.031-.007.041-.01l.03-.015v.056zm.077-.327a.376.376 0 0 0-.17-.037c-.1 0-.17.025-.21.075a.222.222 0 0 0-.043.124h.148a.095.095 0 0 1 .021-.052c.016-.018.041-.027.078-.027a.16.16 0 0 1 .074.014c.017.009.025.025.025.048 0 .02-.01.034-.033.043a.228.228 0 0 1-.06.013l-.054.006a.395.395 0 0 0-.135.037c-.055.032-.083.083-.083.153 0 .055.017.097.052.127.034.03.078.042.131.044.333.015.33-.172.333-.211V1.52c0-.069-.025-.116-.075-.141zm-.755.089c.037 0 .065.012.083.035.012.017.02.037.023.058h.163c-.01-.082-.038-.139-.086-.171a.34.34 0 0 0-.188-.048.27.27 0 0 0-.21.082c-.052.054-.077.13-.077.23 0 .086.023.157.07.212.045.055.117.082.215.082.098 0 .172-.033.222-.098a.256.256 0 0 0 .052-.13h-.162a.133.133 0 0 1-.029.074c-.015.018-.042.028-.079.028-.053 0-.088-.024-.107-.071a.287.287 0 0 1-.016-.102c0-.044.005-.079.016-.105.02-.05.056-.076.11-.076m-.335-.149c-.336 0-.316.3-.316.3v.306h.153v-.286c0-.047.006-.082.017-.104.021-.04.062-.06.123-.06h.018l.026.002V1.32h-.021m-.767.178a.123.123 0 0 1 .092-.033.14.14 0 0 1 .091.03.123.123 0 0 1 .04.091h-.264a.158.158 0 0 1 .041-.088zm.208.28a.088.088 0 0 1-.021.022c-.022.018-.052.023-.087.023a.151.151 0 0 1-.082-.019c-.039-.023-.06-.062-.063-.12h.429a.673.673 0 0 0-.006-.113.285.285 0 0 0-.045-.118.247.247 0 0 0-.103-.085.377.377 0 0 0-.138-.026.285.285 0 0 0-.21.079c-.056.053-.083.129-.083.228 0 .105.03.182.09.229.06.046.13.07.207.07a.29.29 0 0 0 .222-.084.198.198 0 0 0 .053-.086h-.164zm-.475.147h-.139v-.353c0-.032-.01-.109-.101-.109-.06 0-.106.044-.106.109v.353h-.139v-.353c0-.032-.01-.109-.1-.109-.064 0-.107.044-.107.109v.353h-.138v-.35c0-.145.096-.256.244-.256.074 0 .134.031.173.082a.22.22 0 0 1 .172-.082c.152 0 .241.106.241.256v.35m2.645-.147c-.022.032-.055.047-.097.047-.043 0-.075-.016-.095-.047a.24.24 0 0 1-.033-.13c0-.05.01-.091.031-.124.02-.033.053-.05.097-.05.029 0 .054.01.076.028.036.03.053.084.053.154 0 .05-.01.09-.033.122zm.182-.615s-.153-.016-.153.105v.162a.173.173 0 0 0-.066-.063.178.178 0 0 0-.093-.023.22.22 0 0 0-.181.084.368.368 0 0 0-.068.234c0 .085.023.154.069.208.046.054.136.078.216.078.279 0 .276-.238.276-.238v-.547z"/><path fill="#009EE3" d="M19.025 2.486a.223.223 0 0 0-.034-.134.108.108 0 0 0-.096-.047.108.108 0 0 0-.094.047.234.234 0 0 0-.031.134c0 .057.011.1.033.128a.111.111 0 0 0 .097.047.104.104 0 0 0 .091-.047.211.211 0 0 0 .034-.128m-.255.419a.077.077 0 0 1-.076.076h-.076v-.537c0-.105.035-.17.092-.214.037-.03.093-.058.198-.058.071 0 .155.028.2.084.05.063.07.132.07.224 0 .094-.021.17-.066.228a.209.209 0 0 1-.172.085.225.225 0 0 1-.099-.02.165.165 0 0 1-.071-.07v.202m1.168-.419c0 .102.03.158.089.17.06.01.104-.003.132-.042a.17.17 0 0 0 .03-.076.323.323 0 0 0 0-.103.207.207 0 0 0-.036-.092.102.102 0 0 0-.086-.04c-.05 0-.085.02-.103.056a.289.289 0 0 0-.027.127m.256.255v-.039a.176.176 0 0 1-.109.078.228.228 0 0 1-.136-.012c-.045-.017-.083-.05-.115-.098s-.048-.112-.048-.19a.36.36 0 0 1 .063-.223c.043-.057.112-.083.206-.085a.288.288 0 0 1 .2.057c.057.044.091.11.091.213v.313c0 .1-.07.284-.291.269-.137-.01-.213-.065-.256-.191h.164c.012.02.03.036.055.047.024.012.05.015.074.01a.127.127 0 0 0 .067-.044.178.178 0 0 0 .035-.106m-.605-.203c-.001.05-.016.084-.044.103a.155.155 0 0 1-.092.029.09.09 0 0 1-.054-.017c-.014-.012-.022-.03-.022-.056 0-.029.012-.05.036-.064a.262.262 0 0 1 .07-.02l.036-.006.041-.01.03-.015v.056zm.077-.327a.376.376 0 0 0-.17-.038c-.1 0-.169.026-.21.076a.22.22 0 0 0-.043.124h.148a.102.102 0 0 1 .021-.053c.016-.017.041-.026.078-.026a.16.16 0 0 1 .074.013c.017.01.025.026.025.05 0 .018-.01.033-.033.042a.228.228 0 0 1-.06.013l-.053.006a.395.395 0 0 0-.135.037c-.055.032-.083.083-.083.153 0 .055.017.097.052.126.034.03.078.042.131.045.333.015.33-.173.333-.212v-.214c0-.07-.025-.116-.075-.141zm1.14.412a.12.12 0 0 1-.103.048.122.122 0 0 1-.103-.048.217.217 0 0 1-.036-.135c0-.058.012-.103.036-.135a.124.124 0 0 1 .103-.047c.045 0 .079.016.103.047a.221.221 0 0 1 .036.135.217.217 0 0 1-.036.135m.122-.353c-.05-.062-.124-.093-.224-.093s-.175.031-.224.093a.333.333 0 0 0-.074.218c0 .086.024.159.074.22.049.06.124.09.224.09s.174-.03.224-.09a.34.34 0 0 0 .073-.22.338.338 0 0 0-.073-.218"/><path fill="#2D3277" d="M16.868 1.141c-.75.002-1.356.404-1.354.896v.053c.002.521.534.942 1.36.939.831-.002 1.356-.427 1.355-.948-.002-.018 0-.028 0-.052-.003-.49-.609-.888-1.356-.888h-.006z"/><path fill="#009EE3" d="M16.868 1.187c-.714.003-1.292.383-1.29.85.001.468.581.845 1.295.843.714-.002 1.292-.383 1.29-.85 0-.466-.577-.843-1.289-.843h-.006z"/><path fill="#D8D8D8" d="M16.921 1.464c-.196.005-.28.09-.37.182l-.114.125c0 .001-.014.014-.007.025.02.027.084.042.149.027a.437.437 0 0 0 .134-.087.56.56 0 0 1 .154-.1.18.18 0 0 1 .113-.003.359.359 0 0 1 .103.06c.09.067.449.382.512.435.05-.024.272-.12.573-.187a.716.716 0 0 0-.273-.43c-.206.088-.46.135-.707.013-.001 0-.129-.06-.258-.06h-.01zm-1.346.469c.024.007.06.018.078.02.37.083.487.167.507.185a.121.121 0 0 1 .192.011.128.128 0 0 1 .089-.031c.017 0 .035.002.054.01a.113.113 0 0 1 .074.066c.014-.005.03-.011.052-.01.02 0 .04.005.062.013.068.03.079.097.074.148h.014a.147.147 0 0 1 .13.217c.022.012.078.04.127.034.04-.005.055-.02.06-.027.005-.005.008-.011.005-.015l-.105-.117s-.017-.016-.011-.021c.005-.007.017.002.024.01.053.044.118.111.118.111.002.002.006.01.03.014.021.004.058 0 .083-.02a.062.062 0 0 0 .018-.018l-.001.002c.026-.035-.004-.07-.004-.07l-.123-.138s-.017-.017-.011-.023c.005-.006.017.003.024.01a2.4 2.4 0 0 1 .145.138c.01.007.057.036.118-.004.036-.025.044-.054.042-.077-.003-.03-.026-.05-.026-.05l-.167-.17s-.017-.014-.011-.022c.005-.007.016.003.024.01l.198.176c.001.002.051.037.113-.002a.077.077 0 0 0 .037-.06c.003-.044-.027-.07-.027-.07-.005-.004-.424-.37-.518-.441-.056-.04-.085-.052-.118-.056a.15.15 0 0 0-.056.005.512.512 0 0 0-.153.092.411.411 0 0 1-.149.092.232.232 0 0 1-.164-.025.069.069 0 0 1-.027-.03c-.012-.026.01-.049.014-.054l.115-.126.04-.04c-.035.004-.07.014-.105.023-.042.012-.082.024-.123.023-.016 0-.107-.015-.125-.02a1.837 1.837 0 0 1-.334-.12c-.163.124-.273.279-.303.448zm.678.199a.09.09 0 0 0-.09.091c0 .053.04.093.091.093a.099.099 0 0 0 .063-.028s.002.002 0 .003c-.004.023-.01.105.075.138.034.014.064.004.088-.014.007-.005.008-.003.007.004-.003.022 0 .067.064.092.049.02.077-.001.096-.018.009-.008.01-.006.012.005.002.061.053.11.114.11a.115.115 0 0 0 .114-.115.116.116 0 0 0-.116-.114c-.025 0-.053.015-.057.014-.002-.002.001-.012.004-.019.003-.006.037-.11-.047-.144-.064-.028-.103.004-.116.017-.004.004-.005.003-.005-.001-.002-.02-.01-.07-.065-.086a.124.124 0 0 0-.142.051.09.09 0 0 0-.089-.08z"/><path fill="url(#g)" d="M1.421.048c-.196.005-.28.09-.37.182L.937.355C.937.356.923.369.93.38c.02.027.084.042.149.027A.437.437 0 0 0 1.213.32a.56.56 0 0 1 .154-.1.18.18 0 0 1 .113-.003.359.359 0 0 1 .103.06c.09.067.449.382.512.435.05-.024.272-.12.573-.187a.716.716 0 0 0-.273-.43c-.206.088-.46.135-.707.013-.001 0-.129-.06-.258-.06h-.01zM.075.517c.024.007.06.018.078.02C.523.62.64.704.66.722a.121.121 0 0 1 .192.011.128.128 0 0 1 .089-.031c.017 0 .035.002.054.01a.113.113 0 0 1 .074.066c.014-.005.03-.011.052-.01.02 0 .04.005.062.013.068.03.079.097.074.148h.014a.147.147 0 0 1 .13.217c.022.012.078.04.127.034.04-.005.055-.02.06-.027.005-.005.008-.011.005-.015l-.105-.117S1.471 1.005 1.477 1c.005-.007.017.002.024.01.053.044.118.111.118.111.002.002.006.01.03.014.021.004.058 0 .083-.02a.062.062 0 0 0 .018-.018l-.001.002c.026-.035-.004-.07-.004-.07L1.622.891S1.605.874 1.611.868c.005-.006.017.003.024.01a2.4 2.4 0 0 1 .145.138c.01.007.057.036.118-.004.036-.025.044-.054.042-.077-.003-.03-.026-.05-.026-.05l-.167-.17S1.73.701 1.736.693c.005-.007.016.003.024.01l.198.176c.001.002.051.037.113-.002a.077.077 0 0 0 .037-.06c.003-.044-.027-.07-.027-.07-.005-.004-.424-.37-.518-.441-.056-.04-.085-.052-.118-.056a.15.15 0 0 0-.056.005.512.512 0 0 0-.153.092.411.411 0 0 1-.149.092.232.232 0 0 1-.164-.025.069.069 0 0 1-.027-.03C.884.358.906.335.91.33l.115-.126.04-.04C1.03.168.995.178.96.187.918.199.878.211.837.21.821.21.73.195.712.19A1.837 1.837 0 0 1 .378.07C.215.194.105.349.075.518zm.678.199a.09.09 0 0 0-.09.091C.663.86.703.9.754.9A.099.099 0 0 0 .817.872s.002.002 0 .003c-.004.023-.01.105.075.138.034.014.064.004.088-.014.007-.005.008-.003.007.004-.003.022 0 .067.064.092.049.02.077-.001.096-.018.009-.008.01-.006.012.005.002.061.053.11.114.11a.115.115 0 0 0 .114-.115.116.116 0 0 0-.116-.114c-.025 0-.053.015-.057.014-.002-.002.001-.012.004-.019.003-.006.037-.11-.047-.144-.064-.028-.103.004-.116.017C1.051.835 1.05.834 1.05.83 1.048.81 1.04.76.985.744a.124.124 0 0 0-.142.051.09.09 0 0 0-.089-.08z" transform="translate(15.5 1.416)"/><path fill="#FFF" d="M16.921 1.464c-.196.005-.28.09-.37.182l-.114.125c0 .001-.014.014-.007.025.02.027.084.042.149.027a.437.437 0 0 0 .134-.087.56.56 0 0 1 .154-.1.18.18 0 0 1 .113-.003.359.359 0 0 1 .103.06c.09.067.449.382.512.435.05-.024.272-.12.573-.187a.716.716 0 0 0-.273-.43c-.206.088-.46.135-.707.013-.001 0-.129-.06-.258-.06h-.01zm-1.346.469c.024.007.06.018.078.02.37.083.487.167.507.185a.121.121 0 0 1 .192.011.128.128 0 0 1 .089-.031c.017 0 .035.002.054.01a.113.113 0 0 1 .074.066c.014-.005.03-.011.052-.01.02 0 .04.005.062.013.068.03.079.097.074.148h.014a.147.147 0 0 1 .13.217c.022.012.078.04.127.034.04-.005.055-.02.06-.027.005-.005.008-.011.005-.015l-.105-.117s-.017-.016-.011-.021c.005-.007.017.002.024.01.053.044.118.111.118.111.002.002.006.01.03.014.021.004.058 0 .083-.02a.062.062 0 0 0 .018-.018l-.001.002c.026-.035-.004-.07-.004-.07l-.123-.138s-.017-.017-.011-.023c.005-.006.017.003.024.01a2.4 2.4 0 0 1 .145.138c.01.007.057.036.118-.004.036-.025.044-.054.042-.077-.003-.03-.026-.05-.026-.05l-.167-.17s-.017-.014-.011-.022c.005-.007.016.003.024.01l.198.176c.001.002.051.037.113-.002a.077.077 0 0 0 .037-.06c.003-.044-.027-.07-.027-.07-.005-.004-.424-.37-.518-.441-.056-.04-.085-.052-.118-.056a.15.15 0 0 0-.056.005.512.512 0 0 0-.153.092.411.411 0 0 1-.149.092.232.232 0 0 1-.164-.025.069.069 0 0 1-.027-.03c-.012-.026.01-.049.014-.054l.115-.126.04-.04c-.035.004-.07.014-.105.023-.042.012-.082.024-.123.023-.016 0-.107-.015-.125-.02a1.837 1.837 0 0 1-.334-.12c-.163.124-.273.279-.303.448zm.678.199a.09.09 0 0 0-.09.091c0 .053.04.093.091.093a.099.099 0 0 0 .063-.028s.002.002 0 .003c-.004.023-.01.105.075.138.034.014.064.004.088-.014.007-.005.008-.003.007.004-.003.022 0 .067.064.092.049.02.077-.001.096-.018.009-.008.01-.006.012.005.002.061.053.11.114.11a.115.115 0 0 0 .114-.115.116.116 0 0 0-.116-.114c-.025 0-.053.015-.057.014-.002-.002.001-.012.004-.019.003-.006.037-.11-.047-.144-.064-.028-.103.004-.116.017-.004.004-.005.003-.005-.001-.002-.02-.01-.07-.065-.086a.124.124 0 0 0-.142.051.09.09 0 0 0-.089-.08z"/><path fill="#D8D8D8" d="M16.932 1.42h-.011a.491.491 0 0 0-.316.113.658.658 0 0 0-.155.029.378.378 0 0 1-.113.021h-.042a2.35 2.35 0 0 1-.399-.111.534.534 0 0 0-.048.035c.167.068.37.12.433.124l.055.005c.044 0 .085-.013.126-.025a.675.675 0 0 1 .08-.019c-.008.007-.016.014-.023.023l-.115.125c-.008.008-.029.034-.016.064a.076.076 0 0 0 .03.032.255.255 0 0 0 .172.027c.048-.01.098-.053.153-.094a.507.507 0 0 1 .15-.092.213.213 0 0 1 .042-.006l.012.001a.24.24 0 0 1 .114.054c.094.072.514.438.518.44 0 0 .028.024.025.063a.068.068 0 0 1-.033.054.109.109 0 0 1-.055.018c-.028 0-.047-.014-.048-.014-.002-.001-.146-.133-.2-.176-.008-.006-.015-.012-.022-.013a.014.014 0 0 0-.012.006c-.008.01.002.024.012.034l.168.168s.021.02.023.045c.002.028-.012.051-.04.07a.11.11 0 0 1-.06.02c-.025 0-.043-.013-.048-.016l-.025-.024c-.045-.043-.09-.088-.124-.115-.008-.008-.016-.013-.025-.013a.013.013 0 0 0-.01.004c-.004.004-.007.011.003.024l.01.01.122.137c.002.002.026.03.004.058l-.004.006-.011.012a.101.101 0 0 1-.06.019l-.017-.001c-.012-.003-.02-.006-.024-.01l-.001-.001c-.007-.007-.069-.07-.12-.112-.008-.006-.017-.013-.025-.013a.012.012 0 0 0-.01.005c-.01.011.004.028.01.033l.106.115c0 .002-.002.003-.005.008-.004.005-.016.017-.053.023l-.014.002c-.04 0-.081-.02-.103-.03a.155.155 0 0 0-.141-.223h-.005c.002-.04-.003-.113-.08-.146a.17.17 0 0 0-.065-.015.112.112 0 0 0-.048.01.127.127 0 0 0-.076-.066.186.186 0 0 0-.055-.009.169.169 0 0 0-.088.03.128.128 0 0 0-.195-.011c-.033-.026-.161-.106-.507-.185l-.078-.021-.01.057.077.017c.353.078.469.159.489.174a.132.132 0 0 0 .121.184c.008 0 .015 0 .024-.002a.15.15 0 0 0 .1.115c.016.006.031.01.047.01l.03-.003c.01.025.032.056.081.077.017.006.036.01.053.01a.134.134 0 0 0 .04-.007.156.156 0 0 0 .256.048.338.338 0 0 0 .132.04c.007-.001.014-.001.02-.003.053-.006.077-.028.088-.043l.006-.009a.142.142 0 0 0 .042.007c.03 0 .057-.01.085-.031a.117.117 0 0 0 .05-.073v-.001l.028.002c.03 0 .06-.01.088-.028.054-.036.064-.083.062-.113l.028.003c.029 0 .055-.01.082-.025a.123.123 0 0 0 .057-.093.13.13 0 0 0-.018-.075 3.48 3.48 0 0 1 .543-.173l-.008-.058a3.08 3.08 0 0 0-.567.186 17.296 17.296 0 0 0-.508-.432.321.321 0 0 0-.106-.06.14.14 0 0 0-.05-.009.223.223 0 0 0-.066.011c-.052.016-.104.058-.154.098l-.003.002a.414.414 0 0 1-.132.084.273.273 0 0 1-.05.006c-.04 0-.077-.012-.092-.029-.003-.002 0-.007.004-.014h.002l.113-.124c.088-.089.172-.173.365-.179h.01c.12 0 .242.054.254.06a.788.788 0 0 0 .726-.011.26.26 0 0 0-.046-.036.737.737 0 0 1-.659-.001c-.006-.002-.137-.064-.276-.064zm-.76.806c0-.045.038-.083.083-.083.04 0 .077.032.081.073l.004.022.012-.018a.117.117 0 0 1 .132-.049c.05.015.058.06.06.079 0 .011.008.011.01.011.004 0 .006-.003.01-.004a.082.082 0 0 1 .06-.026c.014 0 .03.003.045.01.078.033.043.133.043.135-.007.017-.007.024-.001.028l.003.001h.002a.045.045 0 0 0 .016-.004.108.108 0 0 1 .042-.01.11.11 0 0 1 .108.107.109.109 0 0 1-.108.104.106.106 0 0 1-.107-.103c0-.004 0-.018-.012-.018-.004 0-.008.003-.013.007-.012.012-.028.025-.052.024a.088.088 0 0 1-.034-.008c-.06-.025-.061-.066-.059-.083.003-.005.003-.009-.001-.013l-.006-.003h-.003a.045.045 0 0 0-.01.005.085.085 0 0 1-.052.019.057.057 0 0 1-.028-.006c-.08-.031-.074-.106-.07-.13 0-.004 0-.008-.003-.01l-.004-.002-.007.004a.078.078 0 0 1-.058.024.086.086 0 0 1-.084-.083z"/><path fill="#2D3277" d="M16.932 1.42h-.011a.491.491 0 0 0-.316.113.658.658 0 0 0-.155.029.378.378 0 0 1-.113.021h-.042a2.35 2.35 0 0 1-.399-.111.534.534 0 0 0-.048.035c.167.068.37.12.433.124l.055.005c.044 0 .085-.013.126-.025a.675.675 0 0 1 .08-.019c-.008.007-.016.014-.023.023l-.115.125c-.008.008-.029.034-.016.064a.076.076 0 0 0 .03.032.255.255 0 0 0 .172.027c.048-.01.098-.053.153-.094a.507.507 0 0 1 .15-.092.213.213 0 0 1 .042-.006l.012.001a.24.24 0 0 1 .114.054c.094.072.514.438.518.44 0 0 .028.024.025.063a.068.068 0 0 1-.033.054.109.109 0 0 1-.055.018c-.028 0-.047-.014-.048-.014-.002-.001-.146-.133-.2-.176-.008-.006-.015-.012-.022-.013a.014.014 0 0 0-.012.006c-.008.01.002.024.012.034l.168.168s.021.02.023.045c.002.028-.012.051-.04.07a.11.11 0 0 1-.06.02c-.025 0-.043-.013-.048-.016l-.025-.024c-.045-.043-.09-.088-.124-.115-.008-.008-.016-.013-.025-.013a.013.013 0 0 0-.01.004c-.004.004-.007.011.003.024l.01.01.122.137c.002.002.026.03.004.058l-.004.006-.011.012a.101.101 0 0 1-.06.019l-.017-.001c-.012-.003-.02-.006-.024-.01l-.001-.001c-.007-.007-.069-.07-.12-.112-.008-.006-.017-.013-.025-.013a.012.012 0 0 0-.01.005c-.01.011.004.028.01.033l.106.115c0 .002-.002.003-.005.008-.004.005-.016.017-.053.023l-.014.002c-.04 0-.081-.02-.103-.03a.155.155 0 0 0-.141-.223h-.005c.002-.04-.003-.113-.08-.146a.17.17 0 0 0-.065-.015.112.112 0 0 0-.048.01.127.127 0 0 0-.076-.066.186.186 0 0 0-.055-.009.169.169 0 0 0-.088.03.128.128 0 0 0-.195-.011c-.033-.026-.161-.106-.507-.185l-.078-.021-.01.057.077.017c.353.078.469.159.489.174a.132.132 0 0 0 .121.184c.008 0 .015 0 .024-.002a.15.15 0 0 0 .1.115c.016.006.031.01.047.01l.03-.003c.01.025.032.056.081.077.017.006.036.01.053.01a.134.134 0 0 0 .04-.007.156.156 0 0 0 .256.048.338.338 0 0 0 .132.04c.007-.001.014-.001.02-.003.053-.006.077-.028.088-.043l.006-.009a.142.142 0 0 0 .042.007c.03 0 .057-.01.085-.031a.117.117 0 0 0 .05-.073v-.001l.028.002c.03 0 .06-.01.088-.028.054-.036.064-.083.062-.113l.028.003c.029 0 .055-.01.082-.025a.123.123 0 0 0 .057-.093.13.13 0 0 0-.018-.075 3.48 3.48 0 0 1 .543-.173l-.008-.058a3.08 3.08 0 0 0-.567.186 17.296 17.296 0 0 0-.508-.432.321.321 0 0 0-.106-.06.14.14 0 0 0-.05-.009.223.223 0 0 0-.066.011c-.052.016-.104.058-.154.098l-.003.002a.414.414 0 0 1-.132.084.273.273 0 0 1-.05.006c-.04 0-.077-.012-.092-.029-.003-.002 0-.007.004-.014h.002l.113-.124c.088-.089.172-.173.365-.179h.01c.12 0 .242.054.254.06a.788.788 0 0 0 .726-.011.26.26 0 0 0-.046-.036.737.737 0 0 1-.659-.001c-.006-.002-.137-.064-.276-.064zm-.76.806c0-.045.038-.083.083-.083.04 0 .077.032.081.073l.004.022.012-.018a.117.117 0 0 1 .132-.049c.05.015.058.06.06.079 0 .011.008.011.01.011.004 0 .006-.003.01-.004a.082.082 0 0 1 .06-.026c.014 0 .03.003.045.01.078.033.043.133.043.135-.007.017-.007.024-.001.028l.003.001h.002a.045.045 0 0 0 .016-.004.108.108 0 0 1 .042-.01.11.11 0 0 1 .108.107.109.109 0 0 1-.108.104.106.106 0 0 1-.107-.103c0-.004 0-.018-.012-.018-.004 0-.008.003-.013.007-.012.012-.028.025-.052.024a.088.088 0 0 1-.034-.008c-.06-.025-.061-.066-.059-.083.003-.005.003-.009-.001-.013l-.006-.003h-.003a.045.045 0 0 0-.01.005.085.085 0 0 1-.052.019.057.057 0 0 1-.028-.006c-.08-.031-.074-.106-.07-.13 0-.004 0-.008-.003-.01l-.004-.002-.007.004a.078.078 0 0 1-.058.024.086.086 0 0 1-.084-.083z"/></g><g fill-rule="nonzero"><path fill="#FFF" d="M19.203 14.215v-.23c0-.088-.054-.146-.147-.146a.154.154 0 0 0-.132.066.135.135 0 0 0-.124-.066.127.127 0 0 0-.109.054v-.046h-.081v.369h.081v-.204c0-.065.035-.096.09-.096.054 0 .081.035.081.096v.204h.081v-.204c0-.065.04-.096.09-.096.054 0 .081.035.081.096v.204h.09zm1.208-.368h-.132v-.112h-.083v.112h-.074v.073h.074v.169c0 .085.035.135.128.135a.223.223 0 0 0 .101-.027l-.023-.07a.125.125 0 0 1-.07.02c-.039 0-.054-.023-.054-.062v-.165h.132v-.073zm.69-.008a.11.11 0 0 0-.097.054v-.046h-.081v.369h.081v-.208c0-.061.028-.096.078-.096.016 0 .035.004.05.008l.024-.077c-.016-.004-.04-.004-.055-.004zm-1.044.039a.265.265 0 0 0-.151-.039c-.093 0-.155.046-.155.12 0 .06.046.095.128.107l.039.004c.042.008.066.019.066.038 0 .027-.031.046-.086.046a.217.217 0 0 1-.124-.038l-.039.061a.277.277 0 0 0 .16.047c.108 0 .17-.05.17-.12 0-.065-.05-.1-.128-.111l-.039-.004c-.035-.004-.062-.011-.062-.035 0-.026.027-.042.07-.042.047 0 .093.02.116.031l.035-.065zm2.166-.039a.108.108 0 0 0-.097.054v-.046h-.081v.369h.081v-.208c0-.061.027-.096.078-.096.015 0 .035.004.05.008l.023-.077c-.015-.004-.038-.004-.054-.004zm-1.04.192c0 .112.078.193.198.193a.195.195 0 0 0 .132-.043l-.039-.065a.158.158 0 0 1-.097.035c-.066 0-.113-.047-.113-.12 0-.069.047-.115.113-.119.035 0 .066.012.097.035l.039-.066a.2.2 0 0 0-.132-.042c-.12 0-.198.08-.198.192zm.753 0v-.184h-.082v.046a.14.14 0 0 0-.116-.054c-.105 0-.186.08-.186.192s.081.193.186.193c.054 0 .093-.02.116-.054v.046h.082v-.185zm-.299 0c0-.065.043-.119.113-.119.066 0 .112.05.112.12 0 .065-.046.119-.112.119a.114.114 0 0 1-.113-.12zm-.974-.192c-.109 0-.186.077-.186.192 0 .116.077.193.19.193a.243.243 0 0 0 .151-.05l-.039-.058a.184.184 0 0 1-.108.038c-.05 0-.101-.023-.113-.088h.276v-.03c.003-.12-.066-.197-.171-.197zm0 .07c.05 0 .085.03.093.088h-.194c.008-.05.043-.089.1-.089zm2.022.122v-.33h-.082v.192a.14.14 0 0 0-.116-.054c-.105 0-.186.08-.186.192s.081.193.186.193c.054 0 .093-.02.116-.054v.046h.083v-.185zm-.299 0c0-.065.043-.119.113-.119.066 0 .112.05.112.12 0 .065-.046.119-.112.119a.114.114 0 0 1-.113-.12zm-2.725 0v-.184h-.081v.046a.14.14 0 0 0-.116-.054c-.105 0-.187.08-.187.192s.082.193.187.193c.054 0 .093-.02.116-.054v.046h.081v-.185zm-.302 0c0-.065.042-.119.112-.119.066 0 .113.05.113.12 0 .065-.047.119-.113.119-.07-.004-.112-.054-.112-.12z"/><g opacity=".801"><path fill="#FF5F00" d="M19.991 11.028h1.223v2.176h-1.223z"/><path fill="#EB001B" d="M20.074 12.086c0-.442.21-.834.531-1.088a1.403 1.403 0 0 0-.861-.296 1.39 1.39 0 0 0-1.398 1.384 1.39 1.39 0 0 0 1.397 1.384c.326 0 .625-.111.861-.296a1.376 1.376 0 0 1-.531-1.088z"/><path fill="#F79E1B" d="M22.842 12.086a1.39 1.39 0 0 1-1.397 1.384c-.326 0-.625-.111-.862-.296a1.37 1.37 0 0 0 .532-1.088c0-.442-.21-.834-.532-1.088.237-.184.536-.296.862-.296.772 0 1.397.623 1.397 1.384z"/></g></g></g></g></svg>